<svg xmlns="http://www.w3.org/2000/svg" width="89.889" height="101" viewBox="0 0 89.889 101">
  <g id="graphql-icon" transform="translate(-5.555 -0.002)">
    <path id="Path_19" data-name="Path 19" d="M13.736,76.977l-3.7-2.141L51.336,3.3l3.7,2.141Z" fill="#00b9ff"/>
    <path id="Path_20" data-name="Path 20" d="M9.181,69.119H91.794V73.4H9.181Z" fill="#00b9ff"/>
    <path id="Path_21" data-name="Path 21" d="M52.137,95.386,10.817,71.529l2.141-3.7,41.32,23.857ZM88.033,33.2,46.71,9.349l2.141-3.7L90.171,29.5Z" fill="#00b9ff"/>
    <path id="Path_22" data-name="Path 22" d="M12.969,33.189l-2.141-3.7L52.184,5.622l2.141,3.7Z" fill="#00b9ff"/>
    <path id="Path_23" data-name="Path 23" d="M87.272,76.977,45.963,5.434l3.7-2.141,41.31,71.543ZM12.457,26.644h4.282V74.357H12.457Zm71.805,0h4.282V74.357H84.262Z" fill="#00b9ff"/>
    <path id="Path_24" data-name="Path 24" d="M51.41,93.571l-1.869-3.239,35.94-20.749,1.869,3.239Z" fill="#00b9ff"/>
    <path id="Path_25" data-name="Path 25" d="M94.218,75.751a9.007,9.007,0,1,1-3.3-12.3,9.023,9.023,0,0,1,3.3,12.3m-71.853-41.5a9.008,9.008,0,1,1-3.3-12.305,9.023,9.023,0,0,1,3.3,12.305M6.784,75.751a9.007,9.007,0,1,1,12.3,3.3,9.023,9.023,0,0,1-12.3-3.3m71.856-41.5a9.007,9.007,0,1,1,12.3,3.3,9.023,9.023,0,0,1-12.3-3.3M50.5,101a9,9,0,1,1,9-9,9,9,0,0,1-9,9m0-83a8.995,8.995,0,1,1,6.366-2.636A8.989,8.989,0,0,1,50.5,18.005" fill="#00b9ff"/>
  </g>
</svg>
