<svg xmlns="http://www.w3.org/2000/svg" width="55.387" height="101" viewBox="0 0 55.387 101">
  <g id="NativeIcon" transform="translate(-24.435 -1.629)">
    <path id="Path_11" data-name="Path 11" d="M73.306,1.629H30.952a6.525,6.525,0,0,0-6.516,6.516V96.113a6.525,6.525,0,0,0,6.516,6.516H73.306a6.525,6.525,0,0,0,6.516-6.516V8.145a6.525,6.525,0,0,0-6.516-6.516ZM59.753,4.887l-.916,3.258H45.257l-.815-3.258ZM76.565,96.113a3.262,3.262,0,0,1-3.258,3.258H30.952a3.262,3.262,0,0,1-3.258-3.258V8.145a3.262,3.262,0,0,1,3.258-3.258H41.082L42.4,10.169a1.629,1.629,0,0,0,1.58,1.234H60.071a1.629,1.629,0,0,0,1.568-1.187l1.5-5.329H73.306a3.262,3.262,0,0,1,3.258,3.258Z" fill="#00b9ff"/>
    <path id="Path_12" data-name="Path 12" d="M43.984,92.855h-11.4a1.629,1.629,0,1,0,0,3.258h11.4a1.629,1.629,0,1,0,0-3.258Z" fill="#00b9ff"/>
    <path id="Path_13" data-name="Path 13" d="M50.5,92.855H48.871a1.629,1.629,0,1,0,0,3.258H50.5a1.629,1.629,0,1,0,0-3.258Z" fill="#00b9ff"/>
    <path id="Path_14" data-name="Path 14" d="M57.854,42.587a1.629,1.629,0,0,0-2.235.559l-9.774,16.29a1.629,1.629,0,0,0,2.794,1.676l9.774-16.29A1.629,1.629,0,0,0,57.854,42.587Z" fill="#00b9ff"/>
    <path id="Path_15" data-name="Path 15" d="M63.175,42.966A1.629,1.629,0,1,0,60.631,45l5.7,7.127-5.7,7.127a1.629,1.629,0,0,0,2.544,2.036l6.516-8.145a1.629,1.629,0,0,0,0-2.036Z" fill="#00b9ff"/>
    <path id="Path_16" data-name="Path 16" d="M41.083,61.292a1.629,1.629,0,0,0,2.544-2.036l-5.7-7.127L43.627,45a1.629,1.629,0,0,0-2.544-2.036l-6.516,8.145a1.629,1.629,0,0,0,0,2.036Z" fill="#00b9ff"/>
  </g>
</svg>
