<svg xmlns="http://www.w3.org/2000/svg" width="114" height="95.392" viewBox="0 0 114 95.392">
  <g id="iconfinder-icon_1_" data-name="iconfinder-icon (1)" transform="translate(0.196 0.196)">
    <g id="Group_26" data-name="Group 26">
      <rect id="canvas_background" width="114" height="78.742" transform="translate(-0.196 -0.196)" fill="none"/>
    </g>
    <g id="Group_27" data-name="Group 27">
      <path id="svg_2" d="M50.126,95.2a7,7,0,0,1-3.469-.93L35.626,87.74c-1.645-.93-.84-1.251-.3-1.43a21.722,21.722,0,0,0,4.988-2.271.807.807,0,0,1,.822.072l8.475,5.024a1.036,1.036,0,0,0,1.019,0L83.65,70.075a1.058,1.058,0,0,0,.5-.894V31.063a1.064,1.064,0,0,0-.518-.912L50.627,11.109a1.035,1.035,0,0,0-1.019,0L16.62,30.169a1.043,1.043,0,0,0-.518.912v38.1a.987.987,0,0,0,.518.876l9.047,5.221c4.917,2.449,7.92-.429,7.92-3.343V34.317a.946.946,0,0,1,.966-.947h4.184a.957.957,0,0,1,.965.947V71.953c0,6.544-3.576,10.3-9.78,10.3-1.913,0-3.415,0-7.6-2.074l-8.654-4.988A6.952,6.952,0,0,1,10.2,69.164v-38.1a6.974,6.974,0,0,1,3.469-6.025L46.658,5.978a7.24,7.24,0,0,1,6.937,0L86.618,25.055a6.952,6.952,0,0,1,3.468,6.025v38.1a7,7,0,0,1-3.468,6.025L53.595,94.266a6.954,6.954,0,0,1-3.469.93ZM76.785,57.632c0-7.134-4.828-9.029-14.965-10.37-10.263-1.359-11.3-2.056-11.3-4.452,0-1.984.876-4.631,8.475-4.631,6.777,0,9.28,1.466,10.316,6.043a.958.958,0,0,0,.93.751h4.292a.933.933,0,0,0,.7-.3.991.991,0,0,0,.25-.733c-.661-7.884-5.9-11.55-16.485-11.55-9.422,0-15.036,3.969-15.036,10.638,0,7.223,5.6,9.226,14.625,10.119C69.4,54.2,70.241,55.79,70.241,57.918c0,3.683-2.968,5.256-9.923,5.256-8.743,0-10.656-2.2-11.3-6.543a.946.946,0,0,0-.947-.8H43.8a.942.942,0,0,0-.947.947c0,5.561,3.022,12.194,17.486,12.194,10.441-.018,16.449-4.149,16.449-11.336h0Z" fill="#00b9ff"/>
    </g>
  </g>
</svg>
