<svg xmlns="http://www.w3.org/2000/svg" xmlns:xlink="http://www.w3.org/1999/xlink" width="105" height="105" viewBox="0 0 105 105">
  <defs>
    <clipPath id="clip-path">
      <rect id="Rectangle_56" data-name="Rectangle 56" width="105" height="105" transform="translate(828 1381)" fill="#00b9ff" stroke="#707070" stroke-width="1"/>
    </clipPath>
  </defs>
  <g id="Mask_Group_2" data-name="Mask Group 2" transform="translate(-828 -1381)" clip-path="url(#clip-path)">
    <path id="typescriptlang-icon" d="M0,52.5V105H105V0H0Zm84.616-4.183A13.077,13.077,0,0,1,91.183,52.1,17.25,17.25,0,0,1,93.7,55.465c.033.131-4.533,3.2-7.3,4.917-.1.066-.5-.366-.952-1.034a5.944,5.944,0,0,0-4.933-2.966c-3.183-.217-5.25,1.45-5.217,4.233a3.85,3.85,0,0,0,.45,1.969c.7,1.45,2,2.316,6.083,4.085,7.517,3.232,10.733,5.365,12.731,8.4a15.246,15.246,0,0,1,1.217,12.8c-1.667,4.367-5.8,7.333-11.615,8.318a32.214,32.214,0,0,1-8-.082A19.3,19.3,0,0,1,65.48,90.537a18.458,18.458,0,0,1-2.733-4.052,7.972,7.972,0,0,1,.968-.617l3.9-2.248,3.019-1.75.633.935a14.086,14.086,0,0,0,3.983,3.816c3.35,1.767,7.95,1.516,10.216-.517a4.564,4.564,0,0,0,.584-5.816c-.817-1.165-2.484-2.149-7.219-4.2-5.417-2.333-7.75-3.783-9.883-6.083a13.854,13.854,0,0,1-2.884-5.25,21.017,21.017,0,0,1-.184-6.7c1.116-5.25,5.066-8.884,10.767-9.966a26.628,26.628,0,0,1,7.967.233ZM59.966,52.7l.033,4.3H46.333V95.826H36.667V56.994H23V52.777l.115-4.331c.049-.066,8.367-.1,18.45-.082l18.35.049Z" transform="translate(828 1381.003)" fill="#00b9ff"/>
  </g>
</svg>
